<svg xmlns="http://www.w3.org/2000/svg" width="800" height="1200" viewBox="0 0 800 1200"><rect width="800" height="1200" fill="#FFF7EC"/><radialGradient id="w400400" cx="400" cy="400" r="460"><stop offset="0" stop-color="#5BC8F5" stop-opacity="0.32"/><stop offset="1" stop-color="#5BC8F5" stop-opacity="0"/></radialGradient><rect x="0" y="0" width="100%" height="100%" fill="url(#w400400)"/><radialGradient id="w400950" cx="400" cy="950" r="340"><stop offset="0" stop-color="#FF8FAB" stop-opacity="0.24"/><stop offset="1" stop-color="#FF8FAB" stop-opacity="0"/></radialGradient><rect x="0" y="0" width="100%" height="100%" fill="url(#w400950)"/><circle cx="675.5374812200384" cy="484.7736899323996" r="2" fill="#A78BFA" opacity="0.16"/><circle cx="107.49139528992097" cy="174.80310612495637" r="2" fill="#FF9F1C" opacity="0.16"/><circle cx="764.8274175113995" cy="697.3825590054776" r="2" fill="#FF5C5C" opacity="0.16"/><circle cx="190.3717016735131" cy="177.8054476645003" r="2" fill="#FF9F1C" opacity="0.16"/><circle cx="188.83847178994762" cy="1174.8601440873292" r="2" fill="#FF9F1C" opacity="0.16"/><circle cx="498.32135591176154" cy="1151.9531162339465" r="2" fill="#FF8FAB" opacity="0.16"/><circle cx="634.6720670093304" cy="1053.719218891791" r="2" fill="#FF8FAB" opacity="0.16"/><circle cx="259.0662118665299" cy="852.8204796749914" r="2" fill="#2DD4BF" opacity="0.16"/><circle cx="181.36468750483905" cy="295.7783516032298" r="2" fill="#FF9F1C" opacity="0.16"/><circle cx="370.4058862520172" cy="156.6242758808043" r="2" fill="#A78BFA" opacity="0.16"/><circle cx="457.1220757519308" cy="335.49964632704143" r="2" fill="#FF8FAB" opacity="0.16"/><circle cx="361.9036428078549" cy="1121.1143552447675" r="2" fill="#A78BFA" opacity="0.16"/><circle cx="379.65654295083846" cy="992.6046784107768" r="2" fill="#A78BFA" opacity="0.16"/><circle cx="207.20679337237885" cy="577.49596088797" r="2" fill="#2DD4BF" opacity="0.16"/><circle cx="85.46283016132455" cy="36.66638422484887" r="2" fill="#FF5C5C" opacity="0.16"/><circle cx="772.1937132416983" cy="289.1226014141935" r="2" fill="#FF9F1C" opacity="0.16"/><circle cx="289.21821993126014" cy="1075.0828500084199" r="2" fill="#2DD4BF" opacity="0.16"/><circle cx="417.58712776999454" cy="985.6290377275071" r="2" fill="#FF8FAB" opacity="0.16"/><circle cx="145.01189066657707" cy="288.12363607950743" r="2" fill="#FF9F1C" opacity="0.16"/><circle cx="541.7006614402163" cy="853.1787213555414" r="2" fill="#5BC8F5" opacity="0.16"/><circle cx="724.5117409396165" cy="1111.575430208417" r="2" fill="#5BC8F5" opacity="0.16"/><circle cx="131.95958386655838" cy="617.9255448092989" r="2" fill="#FF9F1C" opacity="0.16"/><circle cx="766.5675038538183" cy="104.76178423897994" r="2" fill="#FF9F1C" opacity="0.16"/><circle cx="739.8922013007561" cy="612.0222080921753" r="2" fill="#2DD4BF" opacity="0.16"/><circle cx="569.8743902615348" cy="62.83631862113319" r="2" fill="#5BC8F5" opacity="0.16"/><circle cx="301.5698419123088" cy="1152.9369081062791" r="2" fill="#A78BFA" opacity="0.16"/><circle cx="597.8330129786268" cy="1080.0698629867852" r="2" fill="#5BC8F5" opacity="0.16"/><circle cx="518.7977759831065" cy="687.0920872111699" r="2" fill="#5BC8F5" opacity="0.16"/><circle cx="90.36573614093042" cy="53.490953854008616" r="2" fill="#FF5C5C" opacity="0.16"/><circle cx="438.4952430493593" cy="1128.0409084210148" r="2" fill="#FF8FAB" opacity="0.16"/><circle cx="431.2652516846485" cy="703.3173221471491" r="2" fill="#FF8FAB" opacity="0.16"/><circle cx="9.82259791838036" cy="623.7335302722244" r="2" fill="#FF5C5C" opacity="0.16"/><circle cx="61.937427082643296" cy="378.52222656413414" r="2" fill="#FF5C5C" opacity="0.16"/><circle cx="456.26273850949855" cy="494.9145927051348" r="2" fill="#FF8FAB" opacity="0.16"/><circle cx="423.1483063523298" cy="592.5991805298863" r="2" fill="#FF8FAB" opacity="0.16"/><circle cx="438.9556845150578" cy="580.9425072949707" r="2" fill="#FF8FAB" opacity="0.16"/><circle cx="262.96041642647833" cy="803.4420434258883" r="2" fill="#2DD4BF" opacity="0.16"/><circle cx="545.6036484703823" cy="690.8594497637166" r="2" fill="#5BC8F5" opacity="0.16"/><circle cx="511.5789557762563" cy="86.83988912336496" r="2" fill="#5BC8F5" opacity="0.16"/><circle cx="167.88099562921383" cy="232.12360187085986" r="2" fill="#FF9F1C" opacity="0.16"/><path d="M 400 560 Q 430 720 415 1150" stroke="#33202A" stroke-width="3" fill="none" opacity="0.6"/><ellipse cx="400" cy="420" rx="120" ry="150" fill="#FF5C5C"/><ellipse cx="400" cy="420" rx="120" ry="150" fill="url(#bg)"/><ellipse cx="368" cy="376" rx="42" ry="62" fill="#FFFFFF" opacity="0.35"/><polygon points="380,566 420,566 400,602" fill="#33202A" opacity="0.85"/><rect x="388" y="602" width="24" height="16" fill="#33202A" opacity="0.7"/><radialGradient id="bg" cx="0.35" cy="0.3" r="0.9"><stop offset="0" stop-color="#FF5C5C"/><stop offset="1" stop-color="#D63B4A"/></radialGradient></svg>